<?xml version="1.0" encoding="utf-8"?>
<!-- Generator: Adobe Illustrator 24.0.2, SVG Export Plug-In . SVG Version: 6.00 Build 0)  -->
<svg version="1.1" id="Layer_1" xmlns="http://www.w3.org/2000/svg" xmlns:xlink="http://www.w3.org/1999/xlink" x="0px" y="0px"
	 viewBox="0 0 534.8 194.9" style="enable-background:new 0 0 534.8 194.9;" xml:space="preserve">
<style type="text/css">
	.st0{fill:none;}
	.st1{fill:#FFFFFF;}
	.st2{fill:#7EBA59;}
	.st3{fill:#C77351;}
	.st4{fill:none;stroke:#FF931E;stroke-width:8;stroke-linecap:round;stroke-linejoin:bevel;stroke-miterlimit:10;}
</style>
<rect x="-252.4" y="-359.6" class="st0" width="1000" height="1000"/>
<g>
	<path class="st1" d="M22.4,139.8c-5.4,0-9.6,1.9-12.5,5.6v-4.5H0v54h9.9v-20c2.9,3.8,7.1,5.6,12.5,5.6c5.2,0,9.6-2,13.3-5.9
		c3.7-3.9,5.5-8.8,5.5-14.5s-1.8-10.5-5.5-14.5C32,141.8,27.5,139.8,22.4,139.8z M28.2,168c-2,2-4.6,3-7.7,3s-5.6-1-7.6-3
		s-3-4.6-3-7.8s1-5.8,3-7.8s4.5-3,7.6-3s5.6,1,7.7,3c2,2,3,4.6,3,7.8C31.2,163.3,30.2,166,28.2,168z"/>
</g>
<g>
	<path class="st1" d="M58.1,147.5v-6.6h-9.9v38.5h9.9V161c0-3.7,1.2-6.3,3.6-7.9c2.4-1.6,5.1-2.2,8.1-1.9v-11.1
		c-2.6,0-5,0.6-7.1,1.9C60.6,143.2,59.1,145,58.1,147.5z"/>
</g>
<g>
	<path class="st1" d="M92.5,139.8c-5.7,0-10.5,2-14.5,5.9s-5.9,8.8-5.9,14.5s2,10.5,5.9,14.5s8.8,5.9,14.5,5.9s10.5-2,14.5-5.9
		s5.9-8.8,5.9-14.5s-2-10.5-5.9-14.5C103.1,141.8,98.2,139.8,92.5,139.8z M100,167.8c-2,2-4.5,3-7.5,3s-5.5-1-7.4-3
		c-2-2-3-4.5-3-7.6s1-5.6,3-7.6s4.5-3,7.4-3c3,0,5.5,1,7.5,3s3,4.5,3,7.6S102,165.8,100,167.8z"/>
</g>
<g>
	<polygon class="st1" points="134.4,167.9 125.1,140.9 114.1,140.9 128.8,179.4 140.1,179.4 154.7,140.9 143.8,140.9 	"/>
</g>
<g>
	<rect x="159.5" y="140.9" class="st1" width="9.9" height="38.6"/>
</g>
<g>
	<path class="st1" d="M164.5,124c-1.6,0-3.1,0.6-4.3,1.9c-1.2,1.2-1.8,2.7-1.8,4.3c0,1.6,0.6,3.1,1.8,4.3c1.2,1.2,2.6,1.8,4.3,1.8
		c1.7,0,3.1-0.6,4.4-1.8c1.2-1.2,1.8-2.6,1.8-4.3c0-1.6-0.6-3.1-1.8-4.3C167.6,124.6,166.2,124,164.5,124z"/>
</g>
<g>
	<path class="st1" d="M187.9,130.1l-9.9,3v33.4c0,5.3,1.4,9,4.2,11c2.8,2,7.6,2.7,14.5,1.9v-9c-1.9,0.1-3.5,0.1-4.8,0
		s-2.3-0.4-2.9-1c-0.7-0.6-1-1.6-1-2.9v-16c4.8,0,8.7-3.9,8.7-8.7V141H188v-10.9H187.9z"/>
</g>
<g>
	<path class="st1" d="M231.8,145.4c-3-3.8-7.2-5.6-12.6-5.6c-5.1,0-9.5,2-13.2,5.9s-5.5,8.8-5.5,14.5s1.8,10.5,5.5,14.5
		c3.7,3.9,8.1,5.9,13.2,5.9c5.4,0,9.6-1.9,12.6-5.6v4.5h9.9v-38.6h-9.9V145.4z M228.7,168c-2,2-4.6,3-7.7,3s-5.6-1-7.6-3
		s-3-4.6-3-7.8s1-5.8,3-7.8s4.5-3,7.6-3s5.6,1,7.7,3c2,2,3,4.6,3,7.8C231.8,163.3,230.8,166,228.7,168z"/>
</g>
<g>
	<g>
		<path class="st1" d="M293.4,139.8c-5.1,0-8.9,1.9-11.5,5.6c-2.3-3.7-5.8-5.6-10.5-5.6c-4.8,0-8.4,1.7-10.7,5.2v-4.1h-9.9v38.5h9.9
			v-21.7c0-2.8,0.7-5,2-6.5s3.1-2.2,5.3-2.2c2.1,0,3.6,0.6,4.8,1.9c1.1,1.3,1.7,3.1,1.7,5.4v23.1h9.9v-21.7c0-2.8,0.6-5,1.9-6.5
			c1.3-1.5,3-2.2,5.3-2.2c2.1,0,3.6,0.6,4.8,1.9c1.1,1.3,1.7,3.1,1.7,5.4v23.1h9.9v-23.8c0-4.8-1.3-8.7-4-11.6
			C301.4,141.2,297.8,139.8,293.4,139.8z"/>
	</g>
	<g>
		<path class="st1" d="M321.4,124c-1.6,0-3.1,0.6-4.3,1.9c-1.2,1.2-1.8,2.7-1.8,4.3c0,1.6,0.6,3.1,1.8,4.3c1.2,1.2,2.6,1.8,4.3,1.8
			s3.1-0.6,4.4-1.8c1.2-1.2,1.8-2.6,1.8-4.3c0-1.6-0.6-3.1-1.8-4.3C324.5,124.6,323.1,124,321.4,124z"/>
	</g>
	<g>
		<rect x="316.5" y="140.9" class="st1" width="9.9" height="38.6"/>
	</g>
	<g>
		<polygon class="st1" points="358.9,139.8 358.9,163.9 341.9,139.8 336,139.8 336,179.4 343.8,179.4 343.8,155.2 360.8,179.4 
			366.7,179.4 366.7,139.8 		"/>
	</g>
	<path class="st2" d="M453.5,179.4h-67.4c-2.2,0-4-1.8-4-4s1.8-4,4-4h62.8l37.1-64.3l-37.1-64.3h-74.3l-37.1,64.3l11.6,20.1
		c1.1,1.9,0.4,4.4-1.5,5.5s-4.4,0.4-5.5-1.5l-13.9-24.1L370,34.8h83.5l41.8,72.3L453.5,179.4z"/>
	<g>
		<path class="st3" d="M437.2,67h-51c-1.1,0-2-1.8-2-4s0.9-4,2-4h51c1.1,0,2,1.8,2,4S438.3,67,437.2,67z"/>
	</g>
	<g>
		<path class="st2" d="M332.9,111.1h-40.3c-2.2,0-4-1.8-4-4s1.8-4,4-4h40.2c2.2,0,4,1.8,4,4S335.1,111.1,332.9,111.1z"/>
	</g>
	<g>
		<path class="st2" d="M372.3,42.8c-1.4,0-2.7-0.7-3.5-2L348.7,6c-1.1-1.9-0.4-4.4,1.5-5.5s4.4-0.4,5.5,1.5l20.1,34.8
			c1.1,1.9,0.4,4.4-1.5,5.5C373.7,42.6,373,42.8,372.3,42.8z"/>
	</g>
	<g>
		<path class="st2" d="M451.2,42.8c-0.7,0-1.4-0.2-2-0.5c-1.9-1.1-2.6-3.6-1.5-5.5L467.8,2c1.1-1.9,3.5-2.6,5.5-1.5
			c1.9,1.1,2.6,3.6,1.5,5.5l-20.1,34.8C453.9,42.1,452.6,42.8,451.2,42.8z"/>
	</g>
	<path class="st2" d="M487.1,109.1c-0.3-0.6-0.5-1.3-0.5-2c0-2.2,1.8-4,4-4h40.2c2.2,0,4,1.8,4,4s-1.8,4-4,4h-40.2
		C489.1,111.1,487.8,110.3,487.1,109.1z"/>
	<line class="st4" x1="388.3" y1="63" x2="435.2" y2="63"/>
	<line class="st4" x1="438.2" y1="149.5" x2="461.7" y2="108.8"/>
	<line class="st4" x1="386.9" y1="149" x2="361.7" y2="109.4"/>
</g>
</svg>
